<?xml version="1.0" encoding="UTF-8"?>
<!DOCTYPE svg PUBLIC "-//W3C//DTD SVG 1.1//EN" "http://www.w3.org/Graphics/SVG/1.1/DTD/svg11.dtd">
<svg xmlns="http://www.w3.org/2000/svg" version="1.1" width="512px" height="512px" style="shape-rendering:geometricPrecision; text-rendering:geometricPrecision; image-rendering:optimizeQuality; fill-rule:evenodd; clip-rule:evenodd" xmlns:xlink="http://www.w3.org/1999/xlink">
<g><path style="opacity:1" fill="#000000" d="M 100.5,146.5 C 102.167,146.5 103.833,146.5 105.5,146.5C 106.188,163.631 99.1879,176.464 84.5,185C 79.7046,187.033 74.7046,187.866 69.5,187.5C 69.5241,171.613 76.1908,159.446 89.5,151C 93.2656,149.441 96.9323,147.941 100.5,146.5 Z"/></g>
<g><path style="opacity:1" fill="#000000" d="M 169.5,158.5 C 191.836,158.333 214.169,158.5 236.5,159C 261.768,161.936 277.268,175.77 283,200.5C 287.563,226.525 278.729,246.358 256.5,260C 251.067,262.442 245.4,264.108 239.5,265C 224.837,265.5 210.17,265.667 195.5,265.5C 195.5,283.833 195.5,302.167 195.5,320.5C 186.833,320.5 178.167,320.5 169.5,320.5C 169.5,266.5 169.5,212.5 169.5,158.5 Z M 195.5,180.5 C 206.505,180.333 217.505,180.5 228.5,181C 247.128,182.961 256.795,193.295 257.5,212C 257.251,228.91 248.918,239.244 232.5,243C 220.171,243.5 207.838,243.667 195.5,243.5C 195.5,222.5 195.5,201.5 195.5,180.5 Z"/></g>
<g><path style="opacity:1" fill="#000000" d="M -0.5,254.5 C -0.5,246.167 -0.5,237.833 -0.5,229.5C 5.14744,202.35 21.8141,189.183 49.5,190C 56.8295,192.277 64.1628,194.444 71.5,196.5C 80.1162,193.907 88.7829,191.407 97.5,189C 114.391,187.009 127.724,192.842 137.5,206.5C 118.229,221.022 114.063,239.022 125,260.5C 129.542,267.019 135.376,272.019 142.5,275.5C 138.057,288.394 131.557,300.061 123,310.5C 116.109,319.909 106.943,323.409 95.5,321C 88.6803,317.725 81.5136,315.892 74,315.5C 71.5,315.667 69,315.833 66.5,316C 59.5482,318.893 52.3816,321.06 45,322.5C 40.4781,321.989 36.3114,320.489 32.5,318C 14.4762,300.451 3.47618,279.285 -0.5,254.5 Z"/></g>
<g><path style="opacity:1" fill="#000000" d="M 332.5,200.5 C 349.825,198.06 365.492,201.893 379.5,212C 385.526,217.886 389.026,225.053 390,233.5C 390.5,262.498 390.667,291.498 390.5,320.5C 382.5,320.5 374.5,320.5 366.5,320.5C 366.666,314.491 366.499,308.491 366,302.5C 360.159,311.678 351.993,317.845 341.5,321C 323.8,325.619 308.633,321.452 296,308.5C 287.381,294.472 287.381,280.472 296,266.5C 305.554,257.199 317.054,252.366 330.5,252C 342.199,251.373 353.866,250.54 365.5,249.5C 367.813,231.821 360.146,222.154 342.5,220.5C 329.936,220.437 321.603,226.271 317.5,238C 309.841,238.5 302.174,238.666 294.5,238.5C 295.08,224.503 301.413,214.003 313.5,207C 319.715,204.096 326.049,201.929 332.5,200.5 Z M 359.5,267.5 C 361.5,267.5 363.5,267.5 365.5,267.5C 367.022,288.807 357.189,300.473 336,302.5C 319.366,302.231 313.032,294.231 317,278.5C 319.708,274.896 323.208,272.396 327.5,271C 338.264,269.423 348.931,268.256 359.5,267.5 Z"/></g>
<g><path style="opacity:1" fill="#000000" d="M 511.5,202.5 C 511.5,203.833 511.5,205.167 511.5,206.5C 497.068,245.621 482.901,284.954 469,324.5C 465.092,337.489 458.258,348.655 448.5,358C 436.883,363.904 424.549,366.071 411.5,364.5C 411.5,357.5 411.5,350.5 411.5,343.5C 429.339,346.498 439.339,338.998 441.5,321C 427.997,281.657 413.997,242.49 399.5,203.5C 408.727,202.183 417.893,202.183 427,203.5C 436.667,234.5 446.333,265.5 456,296.5C 465.932,265.536 475.766,234.536 485.5,203.5C 494.141,202.502 502.808,202.169 511.5,202.5 Z"/></g>
</svg>
