<?xml version="1.0" encoding="UTF-8"?>
<!DOCTYPE svg PUBLIC "-//W3C//DTD SVG 1.1//EN" "http://www.w3.org/Graphics/SVG/1.1/DTD/svg11.dtd">
<svg xmlns="http://www.w3.org/2000/svg" version="1.1" width="512px" height="320px" style="shape-rendering:geometricPrecision; text-rendering:geometricPrecision; image-rendering:optimizeQuality; fill-rule:evenodd; clip-rule:evenodd" xmlns:xlink="http://www.w3.org/1999/xlink">
<g><path style="opacity:1" fill="#f33231" d="M 141.5,-0.5 C 153.5,-0.5 165.5,-0.5 177.5,-0.5C 206.136,3.15726 232.136,13.4906 255.5,30.5C 249.803,35.6933 244.136,41.1933 238.5,47C 250.167,47.3333 261.833,47.6667 273.5,48C 278.306,52.6264 282.639,57.6264 286.5,63C 265.492,63.1669 244.492,63.6669 223.5,64.5C 220.043,69.2463 216.71,74.0797 213.5,79C 241.5,79.3333 269.5,79.6667 297.5,80C 300.547,84.5922 303.214,89.4255 305.5,94.5C 272.172,95.3332 238.838,95.8332 205.5,96C 203.095,100.647 201.095,105.48 199.5,110.5C 237.161,111.5 274.827,111.833 312.5,111.5C 313.816,116.767 314.816,122.1 315.5,127.5C 275.167,127.5 234.833,127.5 194.5,127.5C 194.051,132.863 193.384,138.196 192.5,143.5C 234.5,143.5 276.5,143.5 318.5,143.5C 319.275,148.797 319.608,154.13 319.5,159.5C 276.833,159.5 234.167,159.5 191.5,159.5C 191.687,164.845 192.02,170.178 192.5,175.5C 234.5,175.5 276.5,175.5 318.5,175.5C 317.554,180.793 316.887,186.126 316.5,191.5C 276.167,191.5 235.833,191.5 195.5,191.5C 195.93,196.928 197.263,202.095 199.5,207C 236.838,207.167 274.171,207.667 311.5,208.5C 309.624,213.461 307.957,218.461 306.5,223.5C 272.827,223.167 239.16,223.5 205.5,224.5C 207.786,229.574 210.453,234.408 213.5,239C 241.5,239.333 269.5,239.667 297.5,240C 294.29,244.92 290.957,249.754 287.5,254.5C 266.508,255.333 245.508,255.833 224.5,256C 228.361,261.374 232.694,266.374 237.5,271C 249.167,271.333 260.833,271.667 272.5,272C 266.891,277.779 261.224,283.279 255.5,288.5C 232.138,305.509 206.138,315.842 177.5,319.5C 165.5,319.5 153.5,319.5 141.5,319.5C 61.1667,305.167 13.8333,257.833 -0.5,177.5C -0.5,165.5 -0.5,153.5 -0.5,141.5C 13.8333,61.1667 61.1667,13.8333 141.5,-0.5 Z"/></g>
<g><path style="opacity:1" fill="#facd44" d="M 333.5,-0.5 C 345.5,-0.5 357.5,-0.5 369.5,-0.5C 449.833,13.8333 497.167,61.1667 511.5,141.5C 511.5,153.5 511.5,165.5 511.5,177.5C 497.169,257.831 449.835,305.165 369.5,319.5C 357.5,319.5 345.5,319.5 333.5,319.5C 305.021,315.45 279.021,305.117 255.5,288.5C 261.224,283.279 266.891,277.779 272.5,272C 260.833,271.667 249.167,271.333 237.5,271C 232.694,266.374 228.361,261.374 224.5,256C 245.508,255.833 266.508,255.333 287.5,254.5C 290.957,249.754 294.29,244.92 297.5,240C 269.5,239.667 241.5,239.333 213.5,239C 210.453,234.408 207.786,229.574 205.5,224.5C 239.16,223.5 272.827,223.167 306.5,223.5C 307.957,218.461 309.624,213.461 311.5,208.5C 274.171,207.667 236.838,207.167 199.5,207C 197.263,202.095 195.93,196.928 195.5,191.5C 235.833,191.5 276.167,191.5 316.5,191.5C 316.887,186.126 317.554,180.793 318.5,175.5C 276.5,175.5 234.5,175.5 192.5,175.5C 192.02,170.178 191.687,164.845 191.5,159.5C 234.167,159.5 276.833,159.5 319.5,159.5C 319.608,154.13 319.275,148.797 318.5,143.5C 276.5,143.5 234.5,143.5 192.5,143.5C 193.384,138.196 194.051,132.863 194.5,127.5C 234.833,127.5 275.167,127.5 315.5,127.5C 314.816,122.1 313.816,116.767 312.5,111.5C 274.827,111.833 237.161,111.5 199.5,110.5C 201.095,105.48 203.095,100.647 205.5,96C 238.838,95.8332 272.172,95.3332 305.5,94.5C 303.214,89.4255 300.547,84.5922 297.5,80C 269.5,79.6667 241.5,79.3333 213.5,79C 216.71,74.0797 220.043,69.2463 223.5,64.5C 244.492,63.6669 265.492,63.1669 286.5,63C 282.639,57.6264 278.306,52.6264 273.5,48C 261.833,47.6667 250.167,47.3333 238.5,47C 244.136,41.1933 249.803,35.6933 255.5,30.5C 279.021,13.8829 305.021,3.54957 333.5,-0.5 Z"/></g>
</svg>
