<?xml version="1.0" encoding="UTF-8"?>
<!DOCTYPE svg PUBLIC "-//W3C//DTD SVG 1.1//EN" "http://www.w3.org/Graphics/SVG/1.1/DTD/svg11.dtd">
<svg xmlns="http://www.w3.org/2000/svg" version="1.1" width="512px" height="512px" style="shape-rendering:geometricPrecision; text-rendering:geometricPrecision; image-rendering:optimizeQuality; fill-rule:evenodd; clip-rule:evenodd" xmlns:xlink="http://www.w3.org/1999/xlink">
<g><path style="opacity:1" fill="#24328f" d="M 364.5,80.5 C 361.587,97.3985 358.421,114.398 355,131.5C 341.402,170.758 313.902,192.591 272.5,197C 258.155,197.167 243.822,197.667 229.5,198.5C 222.468,227.629 214.968,256.629 207,285.5C 205.269,287.617 203.102,289.117 200.5,290C 194.175,290.5 187.842,290.666 181.5,290.5C 161.831,290.667 142.164,290.5 122.5,290C 117.381,287.66 115.048,283.66 115.5,278C 130.863,190.315 147.03,102.815 164,15.5C 165.731,13.3834 167.898,11.8834 170.5,11C 217.833,10.3333 265.167,10.3333 312.5,11C 344.899,17.4002 362.565,37.0668 365.5,70C 364.837,73.4726 364.504,76.9726 364.5,80.5 Z"/></g>
<g><path style="opacity:1" fill="#00a7f2" d="M 364.5,80.5 C 382.909,83.6288 395.409,93.9621 402,111.5C 406.63,123.874 407.63,136.541 405,149.5C 401.489,163.876 397.823,178.209 394,192.5C 382.875,222.621 361.375,239.788 329.5,244C 311.836,244.5 294.17,244.667 276.5,244.5C 269.626,273.996 262.126,303.329 254,332.5C 252.269,334.617 250.102,336.117 247.5,337C 224.77,337.968 202.103,337.635 179.5,336C 175.431,333.458 173.431,329.791 173.5,325C 176.091,313.471 178.757,301.971 181.5,290.5C 187.842,290.666 194.175,290.5 200.5,290C 203.102,289.117 205.269,287.617 207,285.5C 214.968,256.629 222.468,227.629 229.5,198.5C 243.822,197.667 258.155,197.167 272.5,197C 313.902,192.591 341.402,170.758 355,131.5C 358.421,114.398 361.587,97.3985 364.5,80.5 Z"/></g>
<g><path style="opacity:1" fill="#24318f" d="M -0.5,470.5 C -0.5,466.833 -0.5,463.167 -0.5,459.5C 7.30362,428.955 15.137,398.288 23,367.5C 24.4864,363.502 27.3197,361.002 31.5,360C 43.8333,359.333 56.1667,359.333 68.5,360C 84.2629,363.592 92.5962,373.426 93.5,389.5C 92.6377,396.951 91.1377,404.285 89,411.5C 84.7346,421.556 77.2346,427.722 66.5,430C 55.1667,430.333 43.8333,430.667 32.5,431C 28.9039,444.883 25.0706,458.716 21,472.5C 13.1888,478.972 6.02217,478.306 -0.5,470.5 Z M 43.5,383.5 C 50.5079,383.334 57.5079,383.5 64.5,384C 66.8461,385.013 68.5128,386.679 69.5,389C 68.2904,394.514 66.6237,399.847 64.5,405C 55.9422,406.441 47.2756,406.941 38.5,406.5C 40.325,398.867 41.9917,391.2 43.5,383.5 Z"/></g>
<g><path style="opacity:1" fill="#00a7f2" d="M 310.5,359.5 C 322.838,359.333 335.171,359.5 347.5,360C 366.72,364.58 374.887,376.747 372,396.5C 370.759,405.232 367.759,413.232 363,420.5C 358.487,425.341 352.987,428.508 346.5,430C 334.819,430.167 323.152,430.667 311.5,431.5C 308.001,444.828 304.501,458.161 301,471.5C 294,479.5 287,479.5 280,471.5C 278.496,467.961 278.163,464.295 279,460.5C 286.62,428.732 294.62,397.066 303,365.5C 305.114,362.879 307.614,360.879 310.5,359.5 Z M 323.5,383.5 C 331.253,383.104 338.92,383.604 346.5,385C 347.718,386.438 348.385,388.105 348.5,390C 347.568,394.562 346.401,399.062 345,403.5C 344.097,404.701 342.931,405.535 341.5,406C 333.479,406.832 325.479,406.665 317.5,405.5C 319.507,398.138 321.507,390.804 323.5,383.5 Z"/></g>
<g><path style="opacity:1" fill="#00a7f2" d="M 511.5,366.5 C 511.5,370.167 511.5,373.833 511.5,377.5C 503.359,408.728 495.192,440.061 487,471.5C 480,479.5 473,479.5 466,471.5C 465.094,469.256 464.594,466.923 464.5,464.5C 472.017,432.432 479.85,400.432 488,368.5C 492.343,359.941 498.843,357.775 507.5,362C 509.07,363.397 510.404,364.897 511.5,366.5 Z"/></g>
<g><path style="opacity:1" fill="#25328f" d="M 112.5,406.5 C 122.839,406.334 133.172,406.5 143.5,407C 146.618,407.873 149.618,409.039 152.5,410.5C 158.965,405.197 165.465,405.197 172,410.5C 174.298,414.218 174.965,418.218 174,422.5C 170.333,437.167 166.667,451.833 163,466.5C 160.007,475.663 154.007,478.663 145,475.5C 133.586,477.977 122.086,478.144 110.5,476C 90.4854,468.141 82.9854,453.641 88,432.5C 91.2591,419.078 99.4257,410.411 112.5,406.5 Z M 117.5,430.5 C 125.279,430.068 132.946,430.568 140.5,432C 142.871,433.743 144.205,436.077 144.5,439C 143.874,443.004 142.708,446.837 141,450.5C 140.25,451.126 139.416,451.626 138.5,452C 130.833,452.667 123.167,452.667 115.5,452C 109.651,447.054 108.817,441.221 113,434.5C 114.397,432.93 115.897,431.596 117.5,430.5 Z"/></g>
<g><path style="opacity:1" fill="#24318f" d="M 192.5,406.5 C 197.121,405.993 201.454,406.826 205.5,409C 212.038,417.908 218.205,427.074 224,436.5C 230.667,428.5 237.333,420.5 244,412.5C 249.558,406.076 256.058,404.909 263.5,409C 268.16,414.451 268.66,420.284 265,426.5C 244.875,450.96 224.375,475.127 203.5,499C 190.178,502.347 184.345,497.18 186,483.5C 192.977,474.356 200.143,465.356 207.5,456.5C 200.333,445.5 193.167,434.5 186,423.5C 183.788,416.015 185.954,410.348 192.5,406.5 Z"/></g>
<g><path style="opacity:1" fill="#00a7f2" d="M 391.5,406.5 C 401.839,406.334 412.172,406.5 422.5,407C 425.713,407.606 428.713,408.773 431.5,410.5C 438.686,404.923 445.519,405.256 452,411.5C 453.52,415.375 453.854,419.375 453,423.5C 449.333,438.167 445.667,452.833 442,467.5C 438.706,476.32 432.706,478.987 424,475.5C 412.586,477.977 401.086,478.144 389.5,476C 374.134,471.097 366.134,460.597 365.5,444.5C 365.331,425.431 373.998,412.764 391.5,406.5 Z M 396.5,430.5 C 404.279,430.068 411.946,430.568 419.5,432C 422.018,433.87 423.352,436.37 423.5,439.5C 422.98,442.912 422.147,446.245 421,449.5C 420.097,450.701 418.931,451.535 417.5,452C 409.833,452.667 402.167,452.667 394.5,452C 388.618,446.467 388.118,440.3 393,433.5C 394.145,432.364 395.312,431.364 396.5,430.5 Z"/></g>
</svg>
